<?xml version="1.0" encoding="utf-8"?>
<!-- Generator: Adobe Illustrator 28.0.0, SVG Export Plug-In . SVG Version: 6.00 Build 0)  -->
<svg version="1.1" xmlns="http://www.w3.org/2000/svg" xmlns:xlink="http://www.w3.org/1999/xlink" x="0px" y="0px"
	 viewBox="0 0 126.7 126.4" style="enable-background:new 0 0 126.7 126.4;" xml:space="preserve">
<style type="text/css">
	.st0{fill:none;stroke:#FFFFFF;stroke-width:2;stroke-miterlimit:10;}
	.st1{fill:none;stroke:#242C4F;stroke-width:2;stroke-miterlimit:10;}
	.st2{fill:#242C4F;}
</style>
<g id="Capa_13">
	<path class="st0" d="M55.7,64.7"/>
	<path class="st1" d="M51.3,58.3V39.2c0-3.1,2.5-5.5,5.5-5.5h30.4c3.1,0,5.5,2.5,5.5,5.5v21c0,2.4-2,4.4-4.4,4.4
		c-0.3,0-0.2,2.5-0.7,4.4c-0.3,1.1-1.8,1.1-2.2,0c-0.5-1.9-1.5-4.4-3.1-4.4c-1.1,0-5.5,0-10.5,0"/>
	<path class="st1" d="M34.6,89.3c0.2,0,0.2,2,0.5,3.8c0.2,1.3,2.1,1.4,2.5,0.1c0.6-1.8,1.5-3.9,2.9-3.9c2.4,0,20.9,0,26.7,0
		c0.3,0,1.9,0,3.1-1.3c0.8-0.8,1.3-1.9,1.3-3.1V62.7c0-2.4-2-4.4-4.4-4.4H34.6c-2.4,0-4.4,2-4.4,4.4v22.2
		C30.2,87.3,32.2,89.3,34.6,89.3z"/>
	<path class="st2" d="M66.1,71.1h-30c-0.6,0-1,0.4-1,1l0,0c0,0.6,0.4,1,1,1h30c0.6,0,1-0.4,1-1l0,0C67.1,71.6,66.6,71.1,66.1,71.1z"
		/>
	<path class="st2" d="M66.1,76.6h-30c-0.6,0-1,0.4-1,1l0,0c0,0.6,0.4,1,1,1h30c0.6,0,1-0.4,1-1l0,0C67.1,77,66.6,76.6,66.1,76.6z"/>
	<g>
		<path class="st2" d="M67.7,43.6c0-0.7,0.3-1.3,0.7-2c0.5-0.7,1.1-1.2,2-1.6s1.8-0.6,2.9-0.5c1,0,1.9,0.3,2.7,0.7
			c0.8,0.4,1.3,1,1.7,1.6c0.4,0.7,0.6,1.4,0.5,2.1c0,0.6-0.2,1.1-0.4,1.5c-0.3,0.4-0.6,0.8-0.9,1.1c-0.3,0.3-1,0.8-1.9,1.6
			c-0.2,0.2-0.4,0.4-0.6,0.5c-0.2,0.2-0.3,0.3-0.3,0.4c-0.1,0.1-0.1,0.3-0.2,0.4c0,0.1-0.1,0.4-0.2,0.7c-0.2,0.7-0.6,1.1-1.3,1
			c-0.4,0-0.7-0.2-0.9-0.4c-0.2-0.2-0.3-0.6-0.3-1.1c0-0.6,0.1-1.1,0.3-1.5c0.2-0.4,0.5-0.8,0.8-1.1c0.3-0.3,0.7-0.7,1.3-1.1
			c0.5-0.4,0.8-0.6,1-0.8c0.2-0.2,0.4-0.4,0.5-0.6c0.1-0.2,0.2-0.5,0.2-0.8c0-0.6-0.2-1-0.6-1.4c-0.4-0.4-0.9-0.6-1.6-0.7
			c-0.8,0-1.3,0.1-1.7,0.5c-0.4,0.4-0.7,0.9-1,1.7C70.2,44.7,69.7,45,69,45c-0.4,0-0.7-0.2-1-0.5C67.8,44.2,67.7,43.9,67.7,43.6z
			 M72.2,55.4c-0.4,0-0.8-0.2-1.1-0.5c-0.3-0.3-0.4-0.7-0.4-1.2c0-0.4,0.2-0.8,0.5-1.1c0.3-0.3,0.7-0.4,1.2-0.4
			c0.4,0,0.8,0.2,1.1,0.5c0.3,0.3,0.4,0.7,0.4,1.1c0,0.5-0.2,0.9-0.5,1.1C73,55.3,72.7,55.4,72.2,55.4z"/>
	</g>
</g>
<g id="Capa_3_00000031887153778329547520000006907037956947457445_">
	<g id="Circulo_00000111885398396973736110000001591862586811534271_">
		<circle class="st1" cx="63.3" cy="63.2" r="61.1"/>
	</g>
</g>
</svg>
