<?xml version="1.0" encoding="UTF-8"?>
<svg xmlns="http://www.w3.org/2000/svg" viewBox="0 0 126.7 126.4">
  <defs>
    <style>
      .cls-1, .cls-2 {
        stroke-width: 1.78px;
      }

      .cls-1, .cls-2, .cls-3, .cls-4 {
        stroke: #242c4f;
        stroke-miterlimit: 10;
      }

      .cls-1, .cls-3 {
        fill: #fff;
      }

      .cls-2, .cls-4 {
        fill: none;
      }

      .cls-3 {
        stroke-width: 1.58px;
      }

      .cls-5, .cls-6 {
        fill: #242c4f;
        stroke-width: 0px;
      }

      .cls-4 {
        stroke-width: 2px;
      }

      .cls-6 {
        fill-rule: evenodd;
      }
    </style>
  </defs>
  <g id="Capa_1" data-name="Capa 1">
    <g id="Capa_3" data-name="Capa 3">
      <g id="Circulo">
        <circle class="cls-4" cx="63.3" cy="63.2" r="61.1"/>
      </g>
    </g>
  </g>
  <g id="facturacion">
    <g id="aportes_en_linea" data-name="aportes en linea">
      <g>
        <rect class="cls-1" x="24.5" y="38.75" width="75.88" height="56.3" rx="7.54" ry="7.54"/>
        <path class="cls-2" d="m93.87,94.84l-61.83.2c-4.16,0-7.54-3.37-7.54-7.54l.4-42.66c0-4.16,8.09-10.43,12.25-10.43h60.8c4.16,0,7.54,3.37,7.54,7.54v41.22c0,4.16-7.46,11.66-11.62,11.66Z"/>
        <path class="cls-3" d="m90.6,95.57h-57c-4.18,0-8.47-2.65-9.59-5.91l-11.08-32.32c-1.12-3.26,1.36-5.91,5.53-5.91h61c4.18,0,8.47,2.65,9.59,5.91l11.08,32.32c1.12,3.26-5.36,5.91-9.53,5.91Z"/>
      </g>
      <path class="cls-6" d="m81.45,33.43c-2.34-5.82-8.04-9.96-14.7-9.96-8.75,0-15.84,7.09-15.84,15.84h0s0,2.26,0,2.26h-4.53s9.05,9.05,9.05,9.05l9.05-9.05h-4.53s0-2.26,0-2.26c0-6.25,5.06-11.31,11.31-11.31,4.14,0,7.67,2.13,9.64,5.44"/>
      <path class="cls-5" d="m48.02,75.62l-3.02-3.89-1.81-2.38c-.08-.1-.18-.19-.29-.26-.11-.06-.23-.1-.35-.11h-1.93c-.12,0-.23.04-.31.11-.08.07-.12.17-.13.29l-1.1,8.3c-.01.07,0,.14.02.22s.07.15.12.22c.06.06.12.11.2.14.07.03.15.05.21.04h4.46c.11,0,.21-.02.29-.08.08-.06.13-.14.14-.24l.15-1.21h3.04c.12,0,.23-.03.32-.08.09-.06.15-.14.19-.24.04-.12.05-.26.01-.41-.03-.15-.11-.29-.21-.43Zm-3.9,2.2c-.01.07-.1.08-.15.08h-4.46s-.01-.03-.01-.04l1.1-8.3s.02-.08.05-.1c.03-.02.07-.03.12-.03h1.93s.07,0,.11.03c.04.02.07.04.09.07l1.8,2.37.04.05s.04.07.06.1c.01.04.01.08,0,.11-.03.27-.67,5.6-.68,5.66v.02Zm3.71-1.63s-.04.08-.08.11c-.04.03-.09.04-.14.04h-2.88l.46-3.84,2.51,3.23c.05.07.09.15.12.23.03.08.03.16,0,.23Z"/>
      <path class="cls-5" d="m55.02,69.22c-.07-.08-.15-.14-.25-.18-.09-.04-.18-.07-.27-.07h-7.13c-.1,0-.19,0-.27.04-.08.03-.15.08-.2.15-.05.07-.08.15-.08.24,0,.09.01.19.05.28l2.07,6.36c.02.08.06.17.11.25.05.08.12.15.19.21.08.06.16.11.25.15.09.04.18.06.26.06h3.65c.18-.01.32-.09.39-.22.08-.13.08-.31.02-.49l-.48-1.48h.67c.18.02.36,0,.51-.05.08-.04.13-.12.13-.21l.18-1.54c0-.07.03-.21.06-.4,0-.12.03-.26.05-.4.02-.14.03-.31.06-.46.02-.16.03-.23.04-.33l.17-1.41c.01-.08,0-.17-.04-.25-.03-.09-.09-.17-.16-.24h0Zm-1.6,6.79c.03.07.03.15,0,.2-.03.06-.08.09-.15.1h-3.65c-.11,0-.23-.11-.28-.26l-2.07-6.36c-.07-.23,0-.32.23-.32h3.76l2.15,6.63Zm1.02-3.82s-.09,1.13-.18,1.69q-.05.27-.32.27h-.73l-.71-2.19h1.74s.05,0,.07.02c.02.01.05.03.07.05.03.03.04.06.05.09.01.03.02.05.03.08h-.02Zm.34-2.62l-.2,1.55c-.04.45-.08.44-.53.44h-1.69l-.71-2.18h2.93s.04,0,.06.01c.02.01.04.03.06.04.01.02.02.05.02.07.01.02.02.04.02.06"/>
      <path class="cls-5" d="m62.48,76.73h-3.65c-.18-.02-.37-.11-.52-.24-.15-.13-.26-.31-.31-.48l-2.05-6.32c-.07-.18-.06-.37.01-.51.03-.06.09-.11.15-.15.06-.03.14-.05.23-.05h3.65c.08,0,.16.02.24.05.08.03.16.08.23.13.09.07.17.16.24.26.07.1.11.2.14.3l2.04,6.29c.04.09.06.18.06.26,0,.09-.02.16-.06.23-.04.07-.09.12-.16.16-.07.04-.15.06-.24.07Zm-2.35-7.37l.02.06h-3.65s-.06,0-.08.01c-.02,0-.05.02-.06.04-.03.07-.02.16.01.25l2.03,6.26c.06.18.21.32.3.32h3.65c.07,0,.12-.05.15-.1.03-.06.03-.13,0-.2l-2.04-6.29c-.03-.1-.08-.19-.17-.27-.02-.02-.04-.03-.07-.04-.02,0-.05-.01-.07-.01l-.03-.04Z"/>
      <path class="cls-5" d="m70.51,69.32c-.09-.1-.2-.18-.33-.24-.12-.06-.25-.09-.36-.1h-7.75c-.1,0-.2.01-.29.05-.08.04-.15.09-.2.17s-.08.16-.08.26c0,.1.01.2.05.3l2.03,6.23c.06.2.2.39.37.54.08.06.16.11.25.14.09.03.17.05.25.05h3.54c.18,0,.33-.08.42-.21.09-.13.1-.31.05-.49l-.47-1.45h1.45c.23,0,.43-.05.59-.17.15-.12.25-.29.28-.49l.45-3.78c.02-.12.01-.26-.03-.4s-.12-.28-.23-.4h0Zm-2.63,7.01h-3.54s-.06,0-.09-.01c-.03-.01-.06-.03-.09-.05-.08-.07-.14-.16-.17-.26l-2.03-6.25s-.03-.1-.02-.15c0-.05.02-.09.04-.12.02-.03.06-.06.1-.08.04-.02.09-.02.14-.02h3.73l2.15,6.61c.02.08.01.15-.03.21-.04.06-.1.09-.18.09v.02Zm2.48-6.38l-.44,3.79c-.03.13-.1.24-.2.31-.11.07-.24.1-.4.09h-1.46l-1.54-4.75h3.6c.05,0,.1.02.15.04.05.02.1.06.14.1.05.06.09.12.11.18.03.08.03.16.02.24"/>
    </g>
  </g>
</svg>