<?xml version="1.0" encoding="utf-8"?>
<!-- Generator: Adobe Illustrator 28.0.0, SVG Export Plug-In . SVG Version: 6.00 Build 0)  -->
<svg version="1.1" xmlns="http://www.w3.org/2000/svg" xmlns:xlink="http://www.w3.org/1999/xlink" x="0px" y="0px"
	 viewBox="0 0 126.7 126.4" style="enable-background:new 0 0 126.7 126.4;" xml:space="preserve">
<style type="text/css">
	.st0{fill:none;stroke:#1C2444;stroke-width:2;stroke-miterlimit:10;}
	.st1{fill:#1C2444;}
</style>
<g id="Capa_14">
	<g id="Capa_2_00000042694654650136934820000015563362955313468587_">
		<path class="st0" d="M80.6,91.4H46c-3,0-5.4-2.4-5.4-5.4V64.2c0-3,2.4-5.4,5.4-5.4h34.6c3,0,5.4,2.4,5.4,5.4V86
			C86.1,89,83.6,91.4,80.6,91.4z"/>
		<path class="st0" d="M46.9,58.3v-11c0-6.6,5.4-12,12-12h7.7c6.6,0,12,5.4,12,12v11"/>
		<path class="st1" d="M66.7,75.6c0,1.3-0.7,2.5-1.7,3.1c-0.5,0.3,0.8,5.4-1.5,5.3c-2.2-0.1-1.2-5.1-1.7-5.4c-1-0.6-1.7-1.7-1.7-3
			c0-1.9,1.5-3.5,3.4-3.5S66.7,73.6,66.7,75.6z"/>
	</g>
</g>
<g id="Capa_3_00000031887153778329547520000006907037956947457445_">
	<g id="Circulo_00000108281393471653918920000007311145965387823295_">
		<circle class="st0" cx="63.3" cy="63.2" r="61.1"/>
	</g>
</g>
</svg>
