<?xml version="1.0" encoding="UTF-8"?>
<svg xmlns="http://www.w3.org/2000/svg" viewBox="0 0 126.7 126.4">
  <defs>
    <style>
      .cls-1 {
        stroke-linecap: round;
      }

      .cls-1, .cls-2, .cls-3 {
        fill: none;
      }

      .cls-1, .cls-2, .cls-3, .cls-4 {
        stroke-miterlimit: 10;
        stroke-width: 2px;
      }

      .cls-1, .cls-3, .cls-4 {
        stroke: #242c4f;
      }

      .cls-2 {
        stroke: #1c2444;
      }

      .cls-5 {
        fill: #242c4f;
        stroke-width: 0px;
      }

      .cls-4 {
        fill: #fff;
      }
    </style>
  </defs>
  <g id="guia_paso_a_paso" data-name="guia paso a paso">
    <g>
      <line class="cls-2" x1="39.68" y1="62.29" x2="87.38" y2="62.29"/>
      <circle class="cls-4" cx="30.49" cy="61.57" r="9.19"/>
      <line class="cls-1" x1="23.96" y1="82.29" x2="36.85" y2="82.29"/>
      <path class="cls-5" d="m31.91,65.79h-1.98v-6.3l-1.95.57v-1.5l3.74-1.29h.18v8.53Z"/>
    </g>
    <g>
      <circle class="cls-4" cx="63.26" cy="61.57" r="9.19"/>
      <line class="cls-1" x1="56.96" y1="82.29" x2="69.85" y2="82.29"/>
      <path class="cls-5" d="m66.26,65.79h-5.95v-1.29l2.74-2.88c.68-.77,1.01-1.38,1.01-1.83,0-.37-.08-.65-.24-.84s-.39-.29-.7-.29-.54.13-.73.38-.28.58-.28.96h-1.98c0-.52.13-1.01.39-1.45s.62-.79,1.09-1.04.98-.38,1.56-.38c.92,0,1.63.21,2.13.64s.75,1.04.75,1.83c0,.34-.06.66-.19.98s-.32.65-.58,1-.69.82-1.27,1.4l-1.1,1.27h3.36v1.52Z"/>
    </g>
    <g>
      <circle class="cls-4" cx="96.26" cy="61.57" r="9.19"/>
      <line class="cls-1" x1="89.82" y1="82.29" x2="102.71" y2="82.29"/>
      <path class="cls-5" d="m94.89,60.7h.93c.74,0,1.11-.36,1.11-1.08,0-.28-.09-.51-.26-.69s-.42-.27-.74-.27c-.26,0-.49.08-.68.23s-.29.34-.29.57h-1.97c0-.45.12-.85.38-1.2s.6-.63,1.04-.82.93-.3,1.46-.3c.95,0,1.7.22,2.24.65s.81,1.03.81,1.79c0,.37-.11.71-.34,1.04s-.55.59-.98.79c.45.16.81.41,1.07.75s.39.75.39,1.24c0,.76-.29,1.37-.88,1.83s-1.36.69-2.31.69c-.56,0-1.08-.11-1.56-.32s-.84-.51-1.09-.88-.37-.81-.37-1.29h1.99c0,.26.11.49.32.68s.47.29.78.29c.35,0,.62-.1.83-.29s.31-.44.31-.74c0-.43-.11-.73-.32-.91s-.51-.27-.89-.27h-.96v-1.47Z"/>
    </g>
  </g>
  <g id="Capa_3" data-name="Capa 3">
    <g id="Circulo">
      <circle class="cls-3" cx="63.29" cy="63.2" r="61.1"/>
    </g>
  </g>
</svg>