<?xml version="1.0" encoding="UTF-8"?>
<svg id="Capa_1" data-name="Capa 1" xmlns="http://www.w3.org/2000/svg" viewBox="0 0 124.2 124.2">
  <defs>
    <style>
      .cls-1 {
        isolation: isolate;
      }

      .cls-2 {
        fill: none;
        stroke: #1c2444;
        stroke-miterlimit: 10;
        stroke-width: 2px;
      }

      .cls-3 {
        fill: #1c2444;
        stroke-width: 0px;
      }
    </style>
  </defs>
  <g id="monotributo">
    <path class="cls-2" d="m82.4,95.6h-28.5c-2.9,0-5.3-2.3-5.4-5.2v-2c-.1-2.7-2.2-5-4.9-5.2l-2.7-.3c-2.8-.2-4.9-2.6-4.9-5.3v-40.1c0-3,2.4-5.4,5.4-5.4h41c3,0,5.4,2.4,5.4,5.4v52.7c-.1,3-2.5,5.4-5.4,5.4Z"/>
    <g class="cls-1">
      <path class="cls-3" d="m52.96,50.22c0-.26.1-.49.29-.71.19-.21.44-.32.74-.32.18,0,.36.06.54.18.17.12.31.26.4.41l7.66,12.54,7.75-12.62c.2-.33.5-.49.88-.49.28,0,.53.1.73.3s.3.44.3.73v17.21c0,.28-.1.53-.3.73s-.44.3-.73.3-.53-.1-.73-.3-.3-.44-.3-.73v-13.56l-6.72,10.95c-.2.33-.5.49-.88.49s-.68-.17-.88-.49l-6.69-10.93v13.49c0,.28-.1.53-.3.73-.2.2-.44.3-.73.3s-.53-.1-.73-.3c-.2-.2-.3-.44-.3-.73v-17.17Z"/>
    </g>
  </g>
  <g id="Capa_3" data-name="Capa 3">
    <g id="Circulo">
      <circle class="cls-2" cx="62.1" cy="62.1" r="61.1"/>
    </g>
  </g>
</svg>