<?xml version="1.0" encoding="utf-8"?>
<!-- Generator: Adobe Illustrator 28.0.0, SVG Export Plug-In . SVG Version: 6.00 Build 0)  -->
<svg version="1.1" xmlns="http://www.w3.org/2000/svg" xmlns:xlink="http://www.w3.org/1999/xlink" x="0px" y="0px"
	 viewBox="0 0 126.7 126.4" style="enable-background:new 0 0 126.7 126.4;" xml:space="preserve">
<style type="text/css">
	.st0{fill:none;stroke:#1C2444;stroke-width:2;stroke-miterlimit:10;}
	.st1{fill:none;stroke:#1C2444;stroke-width:2.2342;stroke-miterlimit:10;}
	.st2{fill:none;stroke:#1C2444;stroke-width:1.76;stroke-miterlimit:10;}
	.st3{fill:#1C2444;}
</style>
<g id="Capa_11">
	<path class="st0" d="M97.9,94.8H29.6c-4.7,0-8.5-3.8-8.5-8.5V40c0-4.7,3.8-8.5,8.5-8.5h68.3c4.7,0,8.5,3.8,8.5,8.5v46.3
		C106.4,91,102.6,94.8,97.9,94.8z"/>
	<line class="st1" x1="22.1" y1="45.3" x2="105.8" y2="45.3"/>
	<line class="st1" x1="21.5" y1="62.2" x2="105.2" y2="62.2"/>
	<line class="st1" x1="21" y1="79" x2="104.7" y2="79"/>
	<line class="st2" x1="89.9" y1="44.8" x2="89.9" y2="94.6"/>
	<line class="st2" x1="72.3" y1="44.4" x2="72.3" y2="94.2"/>
	<line class="st2" x1="54.7" y1="44.2" x2="54.7" y2="94"/>
	<line class="st2" x1="37.1" y1="44.4" x2="37.1" y2="94.2"/>
	<circle class="st3" cx="46.2" cy="70.3" r="4.4"/>
	<circle class="st3" cx="80.8" cy="70.3" r="4.4"/>
	<circle class="st3" cx="81.1" cy="53.6" r="4.4"/>
	<circle class="st3" cx="29.3" cy="86.8" r="4.4"/>
</g>
<g id="Capa_3_00000031887153778329547520000006907037956947457445_">
	<g id="Circulo_00000111885398396973736110000001591862586811534271_">
		<circle class="st0" cx="63.3" cy="63.2" r="61.1"/>
	</g>
</g>
</svg>
