<svg width="34" height="34" viewBox="0 0 34 34" fill="none" xmlns="http://www.w3.org/2000/svg">
<path d="M20.9741 17.6L21.4166 14.5113H18.6499V12.507C18.6499 11.662 19.0364 10.8383 20.2755 10.8383H21.5333V8.20867C21.5333 8.20867 20.3919 8 19.3006 8C17.0221 8 15.5327 9.47933 15.5327 12.1573V14.5113H13V17.6H15.5327V25.0667H18.6499V17.6H20.9741Z" fill="white"/>
<path d="M17 33.5C7.8873 33.5 0.5 26.1127 0.5 17C0.5 7.8873 7.8873 0.5 17 0.5C26.1127 0.5 33.5 7.8873 33.5 17C33.5 26.1127 26.1127 33.5 17 33.5Z" stroke="white"/>
</svg>
