<svg width="34" height="34" viewBox="0 0 34 34" fill="none" xmlns="http://www.w3.org/2000/svg">
<path d="M16.9978 14.3322C15.5289 14.3322 14.3301 15.531 14.3301 17C14.3301 18.469 15.5289 19.6678 16.9978 19.6678C18.4668 19.6678 19.6656 18.469 19.6656 17C19.6656 15.531 18.4668 14.3322 16.9978 14.3322ZM24.9991 17C24.9991 15.8953 25.0091 14.8005 24.9471 13.6978C24.885 12.4169 24.5928 11.2801 23.6562 10.3435C22.7176 9.40487 21.5829 9.11467 20.302 9.05263C19.1973 8.99059 18.1026 9.0006 16.9999 9.0006C15.8951 9.0006 14.8004 8.99059 13.6977 9.05263C12.4168 9.11467 11.2801 9.40687 10.3435 10.3435C9.40486 11.2821 9.11467 12.4169 9.05263 13.6978C8.99059 14.8025 9.0006 15.8973 9.0006 17C9.0006 18.1027 8.99059 19.1995 9.05263 20.3022C9.11467 21.5831 9.40686 22.7199 10.3435 23.6565C11.2821 24.5951 12.4168 24.8853 13.6977 24.9474C14.8024 25.0094 15.8971 24.9994 16.9999 24.9994C18.1046 24.9994 19.1993 25.0094 20.302 24.9474C21.5829 24.8853 22.7196 24.5931 23.6562 23.6565C24.5948 22.7179 24.885 21.5831 24.9471 20.3022C25.0111 19.1995 24.9991 18.1047 24.9991 17ZM16.9978 21.1048C14.7264 21.1048 12.8932 19.2715 12.8932 17C12.8932 14.7285 14.7264 12.8952 16.9978 12.8952C19.2693 12.8952 21.1025 14.7285 21.1025 17C21.1025 19.2715 19.2693 21.1048 16.9978 21.1048ZM21.2707 13.6858C20.7403 13.6858 20.312 13.2575 20.312 12.7271C20.312 12.1968 20.7403 11.7685 21.2707 11.7685C21.801 11.7685 22.2293 12.1968 22.2293 12.7271C22.2294 12.853 22.2048 12.9778 22.1566 13.0942C22.1085 13.2105 22.0379 13.3163 21.9489 13.4053C21.8598 13.4944 21.7541 13.565 21.6377 13.6131C21.5213 13.6612 21.3966 13.6859 21.2707 13.6858Z" fill="white"/>
<path d="M17 33.5C7.8873 33.5 0.5 26.1127 0.5 17C0.5 7.8873 7.8873 0.5 17 0.5C26.1127 0.5 33.5 7.8873 33.5 17C33.5 26.1127 26.1127 33.5 17 33.5Z" stroke="white"/>
</svg>
