<svg width="34" height="34" viewBox="0 0 34 34" fill="none" xmlns="http://www.w3.org/2000/svg">
<path d="M13.3576 24H10.2478V13.9853H13.3576V24ZM11.801 12.6192C10.8066 12.6192 10 11.7955 10 10.801C10 10.3234 10.1897 9.86528 10.5275 9.52751C10.8653 9.18975 11.3233 9 11.801 9C12.2787 9 12.7368 9.18975 13.0745 9.52751C13.4123 9.86528 13.602 10.3234 13.602 10.801C13.602 11.7955 12.7951 12.6192 11.801 12.6192ZM24.9967 24H21.8935V19.1249C21.8935 17.963 21.8701 16.473 20.2767 16.473C18.6598 16.473 18.4121 17.7354 18.4121 19.0412V24H15.3056V13.9853H18.2882V15.3514H18.3317C18.7469 14.5645 19.761 13.7341 21.2741 13.7341C24.4214 13.7341 25 15.8067 25 18.4988V24H24.9967Z" fill="white"/>
<path d="M0.5 17C0.5 7.8873 7.8873 0.5 17 0.5C26.1127 0.5 33.5 7.8873 33.5 17C33.5 26.1127 26.1127 33.5 17 33.5C7.8873 33.5 0.5 26.1127 0.5 17Z" stroke="white"/>
</svg>
