<svg width="34" height="34" viewBox="0 0 34 34" fill="none" xmlns="http://www.w3.org/2000/svg">
<path d="M24.8908 12.1653L22.6372 23.0273C22.4672 23.7939 22.0239 23.9847 21.3938 23.6236L17.9602 21.0375L16.3034 22.6662C16.12 22.8536 15.9667 23.0103 15.6133 23.0103L15.86 19.4362L22.2239 13.5588C22.5006 13.3067 22.1639 13.167 21.7938 13.4191L13.9265 18.4822L10.5395 17.3987C9.80277 17.1636 9.78944 16.6457 10.6929 16.2845L23.9407 11.0682C24.5541 10.8331 25.0908 11.2079 24.8908 12.1653V12.1653Z" fill="white"/>
<path d="M17 33.5C7.8873 33.5 0.5 26.1127 0.5 17C0.5 7.8873 7.8873 0.5 17 0.5C26.1127 0.5 33.5 7.8873 33.5 17C33.5 26.1127 26.1127 33.5 17 33.5Z" stroke="white"/>
</svg>
