<?xml version="1.0" encoding="UTF-8"?>
<svg id="Capa_2" data-name="Capa 2" xmlns="http://www.w3.org/2000/svg" viewBox="0 0 34 34">
  <defs>
    <style>
      .cls-1 {
        fill: #fff;
        stroke-width: 0px;
      }
    </style>
  </defs>
  <g id="Capa_1-2" data-name="Capa 1">
    <g>
      <path class="cls-1" d="m29.01,4.98C25.8,1.77,21.54,0,17.01,0h0c-4.56,0-8.83,1.78-12.04,5C1.76,8.22,0,12.51,0,17.09c0,4.49,1.78,8.73,5,11.94,3.22,3.21,7.47,4.97,11.98,4.97h0c9.38,0,17.01-7.61,17.02-16.96,0-4.56-1.77-8.84-4.99-12.06Zm-12.03,28.63h0c-4.4,0-8.56-1.72-11.7-4.86C2.13,25.62.39,21.48.39,17.09.39,7.89,7.84.4,17,.39h0c4.43,0,8.59,1.73,11.73,4.86,3.15,3.15,4.88,7.33,4.87,11.79,0,9.13-7.47,16.57-16.63,16.57Z"/>
      <path class="cls-1" d="m26.25,11.23c-.19-.04-.33-.07-.47-.09-1.03-.15-1.92-.6-2.7-1.27-.83-.7-1.48-1.56-1.98-2.52-.11-.21-.23-.28-.47-.28-.94.01-1.88,0-2.82,0-.1,0-.2.01-.32.02v.14s0,0,0,0v.4c0,4.21,0,8.43,0,12.64,0,1.49-1.05,2.76-2.46,3.03-1.5.28-2.93-.49-3.5-1.89-.55-1.36-.04-2.92,1.21-3.74.45-.29.94-.44,1.46-.48.01,0,.03,0,.04,0,.03,0,.06,0,.09,0,.02,0,.05,0,.07,0,.39,0,.78,0,1.17,0h0s.01,0,.02,0v-3.39s-.01,0-.02,0v-.04s-.06-.02-.08-.02c-.36,0-.71,0-1.07,0-2,.01-3.68.76-5.01,2.26-2.03,2.28-2.19,5.7-.4,8.2,1.77,2.48,5.09,3.45,7.87,2.24,2.62-1.14,4.01-3.2,4.08-6.05.06-2.52.01-5.05.02-7.57,0-.08,0-.15,0-.26,1.3,1.25,2.81,1.84,4.51,2.06,0-.02,0-.03,0-.05.04,0,.07.01.11.02.22-1.12.43-2.2.65-3.32Z"/>
    </g>
  </g>
</svg>