<svg width="34" height="34" viewBox="0 0 34 34" fill="none" xmlns="http://www.w3.org/2000/svg">
<path d="M23.8 12.6999C21.4 8.99988 16.5 7.89988 12.7 10.1999C9.00002 12.4999 7.80002 17.4999 10.2 21.1999L10.4 21.4999L9.60002 24.4999L12.6 23.6999L12.9 23.8999C14.2 24.5999 15.6 24.9999 17 24.9999C18.5 24.9999 20 24.5999 21.3 23.7999C25 21.3999 26.1 16.4999 23.8 12.6999ZM21.7 20.3999C21.3 20.9999 20.8 21.3999 20.1 21.4999C19.7 21.4999 19.2 21.6999 17.2 20.8999C15.5 20.0999 14.1 18.7999 13.1 17.2999C12.5 16.5999 12.2 15.6999 12.1 14.7999C12.1 13.9999 12.4 13.2999 12.9 12.7999C13.1 12.5999 13.3 12.4999 13.5 12.4999H14C14.2 12.4999 14.4 12.4999 14.5 12.8999C14.7 13.3999 15.2 14.5999 15.2 14.6999C15.3 14.7999 15.3 14.9999 15.2 15.0999C15.3 15.2999 15.2 15.4999 15.1 15.5999C15 15.6999 14.9 15.8999 14.8 15.9999C14.6 16.0999 14.5 16.2999 14.6 16.4999C15 17.0999 15.5 17.6999 16 18.1999C16.6 18.6999 17.2 19.0999 17.9 19.3999C18.1 19.4999 18.3 19.4999 18.4 19.2999C18.5 19.0999 19 18.5999 19.2 18.3999C19.4 18.1999 19.5 18.1999 19.7 18.2999L21.3 19.0999C21.5 19.1999 21.7 19.2999 21.8 19.3999C21.9 19.6999 21.9 20.0999 21.7 20.3999Z" fill="white"/>
<path d="M0.5 17C0.5 7.8873 7.8873 0.5 17 0.5C26.1127 0.5 33.5 7.8873 33.5 17C33.5 26.1127 26.1127 33.5 17 33.5C7.8873 33.5 0.5 26.1127 0.5 17Z" stroke="white"/>
</svg>
