<svg width="34" height="34" viewBox="0 0 34 34" fill="none" xmlns="http://www.w3.org/2000/svg">
<path d="M25.7544 13.0028C25.5459 12.2144 24.9314 11.5936 24.1512 11.3829C22.7371 11 17.0667 11 17.0667 11C17.0667 11 11.3962 11 9.98209 11.3829C9.20192 11.5936 8.58746 12.2144 8.37891 13.0028C8 14.4317 8 17.4129 8 17.4129C8 17.4129 8 20.3942 8.37891 21.8231C8.58746 22.6114 9.20192 23.2064 9.98209 23.4171C11.3962 23.8 17.0667 23.8 17.0667 23.8C17.0667 23.8 22.7371 23.8 24.1512 23.4171C24.9314 23.2064 25.5459 22.6114 25.7544 21.8231C26.1333 20.3942 26.1333 17.4129 26.1333 17.4129C26.1333 17.4129 26.1333 14.4317 25.7544 13.0028V13.0028ZM15.2121 20.1197V14.7062L19.9515 17.413L15.2121 20.1197V20.1197Z" fill="white"/>
<path d="M17 33.5C7.8873 33.5 0.5 26.1127 0.5 17C0.5 7.8873 7.8873 0.5 17 0.5C26.1127 0.5 33.5 7.8873 33.5 17C33.5 26.1127 26.1127 33.5 17 33.5Z" stroke="white"/>
</svg>
